<?xml version="1.0" encoding="utf-8"?>
<!-- Generator: Adobe Illustrator 21.1.0, SVG Export Plug-In . SVG Version: 6.00 Build 0)  -->
<svg version="1.1" xmlns="http://www.w3.org/2000/svg" xmlns:xlink="http://www.w3.org/1999/xlink" x="0px" y="0px"
	 viewBox="0 0 1920 1080" style="enable-background:new 0 0 1920 1080;" xml:space="preserve">
<style type="text/css">
	.st0{fill:#FFFFFF;stroke:#000000;stroke-miterlimit:10;}
	.st1{fill:url(#SVGID_1_);stroke:url(#SVGID_2_);stroke-miterlimit:10;}
	.st2{fill:url(#SVGID_3_);stroke:url(#SVGID_4_);stroke-miterlimit:10;}
	.st3{fill:#CFBFFF;}
	.st4{fill:#B4B6FF;}
	.st5{fill:url(#SVGID_5_);}
	.st6{fill:url(#SVGID_6_);}
	.st7{fill:#FFFFFF;}
	.st8{fill:#553D65;}
	.st9{fill:#333366;}
	.st10{fill:#42210B;}
	.st11{fill:#004A1F;}
	.st12{fill:#005528;}
	.st13{fill:#006837;}
	.st14{fill:#8A9400;}
	.st15{fill:url(#SVGID_7_);}
	.st16{fill:#534741;}
	.st17{fill:url(#SVGID_8_);}
	.st18{fill:#FFFFFF;stroke:#FFFFFF;stroke-miterlimit:10;}
	.st19{fill:url(#SVGID_9_);}
</style>
<g id="Layer_2">
	<rect x="-21" y="-13" class="st0" width="1953" height="1108"/>
</g>
<g id="Layer_1">
	<g id="Layer_1_1_">
		
			<image style="display:none;overflow:visible;opacity:0.76;enable-background:new    ;" width="1920" height="1080" xlink:href="3A1D639B.jpeg"  transform="matrix(1 0 0 1 3 -1)">
		</image>
	</g>
	<g id="Sky">
		
			<linearGradient id="SVGID_1_" gradientUnits="userSpaceOnUse" x1="147" y1="788.5" x2="2033" y2="788.5" gradientTransform="matrix(1 0 0 -1 0 1080)">
			<stop  offset="4.594595e-02" style="stop-color:#777BAC;stop-opacity:0.7"/>
			<stop  offset="0.427" style="stop-color:#FF7BAC;stop-opacity:0.7"/>
			<stop  offset="0.5649" style="stop-color:#FF7B70;stop-opacity:0.7"/>
			<stop  offset="0.9541" style="stop-color:#FFD4D5;stop-opacity:0.7"/>
		</linearGradient>
		
			<radialGradient id="SVGID_2_" cx="1089.8114" cy="788.4829" r="708.6913" gradientTransform="matrix(1 0 0 -1 0 1080)" gradientUnits="userSpaceOnUse">
			<stop  offset="0.7388" style="stop-color:#FFFFFF;stop-opacity:0"/>
			<stop  offset="0.8057" style="stop-color:#FFFFFF;stop-opacity:0.4301"/>
			<stop  offset="0.8165" style="stop-color:#FFFFFF;stop-opacity:0.5"/>
			<stop  offset="0.8231" style="stop-color:#DBC01F"/>
			<stop  offset="0.8304" style="stop-color:#F1DC3A"/>
			<stop  offset="0.835" style="stop-color:#F5E13F"/>
			<stop  offset="0.8386" style="stop-color:#DBC01F"/>
			<stop  offset="0.8523" style="stop-color:#E1CB46"/>
			<stop  offset="0.872" style="stop-color:#E9D976"/>
			<stop  offset="0.8922" style="stop-color:#F0E4A0"/>
			<stop  offset="0.9126" style="stop-color:#F5EEC3"/>
			<stop  offset="0.9332" style="stop-color:#FAF5DD"/>
			<stop  offset="0.9543" style="stop-color:#FDFBF0"/>
			<stop  offset="0.976" style="stop-color:#FEFEFB"/>
			<stop  offset="0.9993" style="stop-color:#FFFFFF"/>
		</radialGradient>
		<path class="st1" d="M147-31.5l263,431l1004,229c0,0,622.6-452.6,618.8-456.8c-3.8-4.2,0.2-217.2,0.2-217.2L147-31.5z"/>
		
			<linearGradient id="SVGID_3_" gradientUnits="userSpaceOnUse" x1="970.5" y1="626.0618" x2="1044.4891" y2="626.0618" gradientTransform="matrix(1 0 0 -1 0 1080)">
			<stop  offset="4.594595e-02" style="stop-color:#777BAC;stop-opacity:0.7"/>
			<stop  offset="0.427" style="stop-color:#FF7BAC;stop-opacity:0.7"/>
			<stop  offset="0.5649" style="stop-color:#FF7B70;stop-opacity:0.7"/>
			<stop  offset="0.9541" style="stop-color:#FFD4D5;stop-opacity:0.7"/>
		</linearGradient>
		
			<radialGradient id="SVGID_4_" cx="1007.4456" cy="626.0618" r="36.5573" gradientTransform="matrix(1 0 0 -1 0 1080)" gradientUnits="userSpaceOnUse">
			<stop  offset="0.7388" style="stop-color:#FFFFFF;stop-opacity:0"/>
			<stop  offset="0.8057" style="stop-color:#FFFFFF;stop-opacity:0.4301"/>
			<stop  offset="0.8165" style="stop-color:#FFFFFF;stop-opacity:0.5"/>
			<stop  offset="0.8231" style="stop-color:#DBC01F"/>
			<stop  offset="0.8304" style="stop-color:#F1DC3A"/>
			<stop  offset="0.835" style="stop-color:#F5E13F"/>
			<stop  offset="0.8386" style="stop-color:#DBC01F"/>
			<stop  offset="0.8523" style="stop-color:#E1CB46"/>
			<stop  offset="0.872" style="stop-color:#E9D976"/>
			<stop  offset="0.8922" style="stop-color:#F0E4A0"/>
			<stop  offset="0.9126" style="stop-color:#F5EEC3"/>
			<stop  offset="0.9332" style="stop-color:#FAF5DD"/>
			<stop  offset="0.9543" style="stop-color:#FDFBF0"/>
			<stop  offset="0.976" style="stop-color:#FEFEFB"/>
			<stop  offset="0.9993" style="stop-color:#FFFFFF"/>
		</radialGradient>
		<path class="st2" d="M984.8,418.9c0,0,55.7-0.4,57.7,5.6s7,58-14,64s-58-46-58-46L984.8,418.9"/>
	</g>
	<g id="Far_away_mountain">
		<path class="st3" d="M841,398l119-94c0,0-9,37,23,47s188-67,188-67s53,78,109,70s48-11,92,16s57,52,127,43s10,124,10,124
			C1058.5,629.5,843.9,578.9,841,398z"/>
		<path class="st4" d="M1068,537c0,0,4-102,23-108s12,98.9,12,98.9l-40,9.1h2"/>
		<path class="st4" d="M960,304c0,0-17,16-13,40s-3,34-3,34l-32-34l12.3-11.8L960,304z"/>
		
			<linearGradient id="SVGID_5_" gradientUnits="userSpaceOnUse" x1="1053.3175" y1="750.921" x2="1171" y2="750.921" gradientTransform="matrix(1 0 0 -1 0 1080)">
			<stop  offset="0.1486" style="stop-color:#B4B6FF;stop-opacity:0"/>
			<stop  offset="0.9541" style="stop-color:#9BB6FF"/>
		</linearGradient>
		<path class="st5" d="M1171,284c0,0-85,64-95,85s-34.6-28.4-15.8-36.2C1079,325,1171,284,1171,284z"/>
		
			<linearGradient id="SVGID_6_" gradientUnits="userSpaceOnUse" x1="1264.326" y1="678.7227" x2="1330.7517" y2="745.1484" gradientTransform="matrix(1 0 0 -1 0 1080)">
			<stop  offset="0.1514" style="stop-color:#B4B6FF;stop-opacity:0"/>
			<stop  offset="1" style="stop-color:#B4B6FF"/>
		</linearGradient>
		<path class="st6" d="M1356.3,360.4c0,0-8.3,23.6-58.3,28.6s-63-12-56-19s21.7-16,21.7-16s5.4,1.6,27.9-1.7
			S1329.7,341.8,1356.3,360.4z"/>
	</g>
	<g id="Snowy_patch">
		<path class="st7" d="M1007,520c0,0,5,25,37,16s33-18,66-10s73,0,77-6s45,16,45,16s-62,30-76,30s-172.3,29.3-165.1,0.2
			C998,537,1007,520,1007,520z"/>
	</g>
	<g id="Purple_mountain">
		<path class="st8" d="M987.6,563c-0.9,0.1-1.7,0.2-2.6,0.3C725.5,590-17.3,626.3-25,620c-11-9-45-632-45-632L261-1c0,0,32,34,35,64
			s19,29,33,44s49,72,63,116s55,75,78,74s52-52,97-5s39,12,54,28s28,59,55,36s34,48,67,17s42,7,49-8s37,10,56-19s33-51,126,57
			c16.9,19.6,21.2,43.6,36.7,86.7c4.1,11.4,13.7,29.7,18.3,56.3c2.9,16.4,5,24.4,3,31c-9.3,31.1-69.1,42.5-112,35
			c-16.1-2.8-61.5,18.9-69.5,2.5c-7.4-15.1,25.2-57.4,27.5-62.5"/>
		<path class="st9" d="M978.1,462.7c-0.2,1,21.8,66.2,21.8,66.2l7.9,27.9c0,0,4.3,26.7,4.7,29.7s1.7,7.9,1.7,7.9l0.2,2l1.7,13.9
			l-10.1,1.2l-19.6-93.7L978.1,462.7z"/>
		<path class="st9" d="M854,574.7l9.9-0.8c0,0,10.1-62.9,32.1-101.9s4.5-30.5-3.5-30.5C876.8,442.3,837.2,468.7,854,574.7z"/>
		<path class="st9" d="M893.9,615.7c0,0,14.9-7,35.5-2.4L928,545c0,0-5-21-10,1S904.7,604.3,893.9,615.7z"/>
	</g>
	<g id="Trees">
		<g>
			<path class="st10" d="M750,639c-1,4-3,16-3,16l20-1l-4-15H750z"/>
			<path class="st11" d="M787,633c-14-18-15-20-15-20s7,4,13,0c-13-13-12-17-12-17s3,2,5,0c-4-6-21-19-21-29s-2,73-2,73
				S754,651,787,633z"/>
			<path class="st11" d="M727,633c14-18,15-20,15-20s-7,4-13,0c13-13,12-17,12-17s-3,2-5,0c4-6,21-19,21-29s2,73,2,73
				S760,651,727,633z"/>
			<path class="st12" d="M742.9,610c0,0-2.8,6-1.9,8c0.9,2,6.5-3,8.4-7c1.9,6,2.8,15,7.5,1c3.7,5,3.7,15,8.4,0
				c0,0,10.4,17.6,7.1,0.3c-0.5-0.3-0.5-0.3-0.5-0.3s1.9,11-5.6-1c-0.9-1-0.9-1-1.9,0c-0.9,1-1.9,13-6.5,0c-0.9-1-2-0.4-2-0.4
				s-2.6,14.4-5.4-0.6c-0.9-1-12.1,16-6.5-1C742.9,609,742.9,610,742.9,610z"/>
			<path class="st12" d="M745.3,593.5c0,0-2.1,4.4-1.2,5.8c0.9,1.4,5.4-2.5,6.8-5.4c1.8,4.2,3,10.6,6.3,0.4
				c3.4,3.4,3.8,10.6,7.1-0.4c0,0,9.5,12.1,6-0.1c-0.5-0.2-0.5-0.2-0.5-0.2s2,7.8-4.8-0.4c-0.8-0.7-0.8-0.7-1.6,0.1
				c-0.7,0.8-1,9.4-5.5,0.3c-0.8-0.7-1.7-0.2-1.7-0.2s-1.6,10.5-4.6-0.2c-0.8-0.7-9.6,12.1-5.5-0.4
				C745.2,592.8,745.3,593.5,745.3,593.5z"/>
			<path class="st12" d="M785.8,631.9c-0.5-0.4-1.4-1.3-2.8-2.9c-3-1-3,0-3,0s5,9-6,0c-2,1-2,2-2,2s3,12-3,0c-3,1-4,2-4,2
				s0,14.1-5,0.1c-2-0.1-3,0.9-3,0.9s-2,13-6-1c-2-1-3,0-3,0s-5,12-5-2c-2,0-8,12-6-1c-1-1-11.5,10.6-5.7-2.2
				c-0.3,0.2-0.6,0.8-0.6,0.8S721,642,736,631c0,3-4,15,6,2c2,9-1,12,7,2c5,2,4,15,9,0c3,0,6,17,8-1c7-2,7,17,8-2c7,0,10,12,8-2
				c1.8,0.9,8.1,8.6,5.5,2.6"/>
		</g>
		<g>
			<path class="st10" d="M787,659c-1,4-3,16-3,16l20-1l-4-15H787z"/>
			<path class="st13" d="M824,653c-14-18-15-20-15-20s7,4,13,0c-13-13-12-17-12-17s3,2,5,0c-4-6-21-19-21-29s-2,73-2,73
				S791,671,824,653z"/>
			<path class="st13" d="M764,653c14-18,15-20,15-20s-7,4-13,0c13-13,12-17,12-17s-3,2-5,0c4-6,21-19,21-29s2,73,2,73
				S797,671,764,653z"/>
			<path class="st12" d="M779.9,630c0,0-2.8,6-1.9,8c0.9,2,6.5-3,8.4-7c1.9,6,2.8,15,7.5,1c3.7,5,3.7,15,8.4,0
				c0,0,10.4,17.6,7.1,0.3c-0.5-0.3-0.5-0.3-0.5-0.3s1.9,11-5.6-1c-0.9-1-0.9-1-1.9,0c-0.9,1-1.9,13-6.5,0c-0.9-1-2-0.4-2-0.4
				s-2.6,14.4-5.4-0.6c-0.9-1-12.1,16-6.5-1C779.9,629,779.9,630,779.9,630z"/>
			<path class="st12" d="M782.3,613.5c0,0-2.1,4.4-1.2,5.8c0.9,1.4,5.4-2.5,6.8-5.4c1.8,4.2,3,10.6,6.3,0.4
				c3.4,3.4,3.8,10.6,7.1-0.4c0,0,9.5,12.1,6-0.1c-0.5-0.2-0.5-0.2-0.5-0.2s2,7.8-4.8-0.4c-0.8-0.7-0.8-0.7-1.6,0.1
				c-0.7,0.8-1,9.4-5.5,0.3c-0.8-0.7-1.7-0.2-1.7-0.2s-1.6,10.5-4.6-0.2c-0.8-0.7-9.6,12.1-5.5-0.4
				C782.2,612.8,782.3,613.5,782.3,613.5z"/>
			<path class="st12" d="M822.8,651.9c-0.5-0.4-1.4-1.3-2.8-2.9c-3-1-3,0-3,0s5,9-6,0c-2,1-2,2-2,2s3,12-3,0c-3,1-4,2-4,2
				s0,14.1-5,0.1c-2-0.1-3,0.9-3,0.9s-2,13-6-1c-2-1-3,0-3,0s-5,12-5-2c-2,0-8,12-6-1c-1-1-11.5,10.6-5.7-2.2
				c-0.3,0.2-0.6,0.8-0.6,0.8S758,662,773,651c0,3-4,15,6,2c2,9-1,12,7,2c5,2,4,15,9,0c3,0,6,17,8-1c7-2,7,17,8-2c7,0,10,12,8-2
				c1.8,0.9,8.1,8.6,5.5,2.6"/>
		</g>
		<g>
			<path class="st10" d="M708,650c-1,4-3,16-3,16l20-1l-4-15H708z"/>
			<path class="st11" d="M745,644c-14-18-15-20-15-20s7,4,13,0c-13-13-12-17-12-17s3,2,5,0c-4-6-21-19-21-29s-2,73-2,73
				S712,662,745,644z"/>
			<path class="st11" d="M685,644c14-18,15-20,15-20s-7,4-13,0c13-13,12-17,12-17s-3,2-5,0c4-6,21-19,21-29s2,73,2,73
				S718,662,685,644z"/>
			<path class="st12" d="M700.9,621c0,0-2.8,6-1.9,8c0.9,2,6.5-3,8.4-7c1.9,6,2.8,15,7.5,1c3.7,5,3.7,15,8.4,0
				c0,0,10.4,17.6,7.1,0.3c-0.5-0.3-0.5-0.3-0.5-0.3s1.9,11-5.6-1c-0.9-1-0.9-1-1.9,0c-0.9,1-1.9,13-6.5,0c-0.9-1-2-0.4-2-0.4
				s-2.6,14.4-5.4-0.6c-0.9-1-12.1,16-6.5-1C700.9,620,700.9,621,700.9,621z"/>
			<path class="st12" d="M703.3,604.5c0,0-2.1,4.4-1.2,5.8c0.9,1.4,5.4-2.5,6.8-5.4c1.8,4.2,3,10.6,6.3,0.4
				c3.4,3.4,3.8,10.6,7.1-0.4c0,0,9.5,12.1,6-0.1c-0.5-0.2-0.5-0.2-0.5-0.2s2,7.8-4.8-0.4c-0.8-0.7-0.8-0.7-1.6,0.1
				c-0.7,0.8-1,9.4-5.5,0.3c-0.8-0.7-1.7-0.2-1.7-0.2s-1.6,10.5-4.6-0.2c-0.8-0.7-9.6,12.1-5.5-0.4
				C703.2,603.8,703.3,604.5,703.3,604.5z"/>
			<path class="st12" d="M743.8,642.9c-0.5-0.4-1.4-1.3-2.8-2.9c-3-1-3,0-3,0s5,9-6,0c-2,1-2,2-2,2s3,12-3,0c-3,1-4,2-4,2
				s0,14.1-5,0.1c-2-0.1-3,0.9-3,0.9s-2,13-6-1c-2-1-3,0-3,0s-5,12-5-2c-2,0-8,12-6-1c-1-1-11.5,10.6-5.7-2.2
				c-0.3,0.2-0.6,0.8-0.6,0.8S679,653,694,642c0,3-4,15,6,2c2,9-1,12,7,2c5,2,4,15,9,0c3,0,6,17,8-1c7-2,7,17,8-2c7,0,10,12,8-2
				c1.8,0.9,8.1,8.6,5.5,2.6"/>
		</g>
		<g>
			<path class="st10" d="M837,691c-1,4-3,16-3,16l20-1l-4-15H837z"/>
			<path class="st13" d="M874,685c-14-18-15-20-15-20s7,4,13,0c-13-13-12-17-12-17s3,2,5,0c-4-6-21-19-21-29s-2,73-2,73
				S841,703,874,685z"/>
			<path class="st13" d="M814,685c14-18,15-20,15-20s-7,4-13,0c13-13,12-17,12-17s-3,2-5,0c4-6,21-19,21-29s2,73,2,73
				S847,703,814,685z"/>
			<path class="st12" d="M829.9,662c0,0-2.8,6-1.9,8c0.9,2,6.5-3,8.4-7c1.9,6,2.8,15,7.5,1c3.7,5,3.7,15,8.4,0
				c0,0,10.4,17.6,7.1,0.3c-0.5-0.3-0.5-0.3-0.5-0.3s1.9,11-5.6-1c-0.9-1-0.9-1-1.9,0c-0.9,1-1.9,13-6.5,0c-0.9-1-2-0.4-2-0.4
				s-2.6,14.4-5.4-0.6c-0.9-1-12.1,16-6.5-1C829.9,661,829.9,662,829.9,662z"/>
			<path class="st12" d="M832.3,645.5c0,0-2.1,4.4-1.2,5.8c0.9,1.4,5.4-2.5,6.8-5.4c1.8,4.2,3,10.6,6.3,0.4
				c3.4,3.4,3.8,10.6,7.1-0.4c0,0,9.5,12.1,6-0.1c-0.5-0.2-0.5-0.2-0.5-0.2s2,7.8-4.8-0.4c-0.8-0.7-0.8-0.7-1.6,0.1
				c-0.7,0.8-1,9.4-5.5,0.3c-0.8-0.7-1.7-0.2-1.7-0.2s-1.6,10.5-4.6-0.2c-0.8-0.7-9.6,12.1-5.5-0.4
				C832.2,644.8,832.3,645.5,832.3,645.5z"/>
			<path class="st12" d="M872.8,683.9c-0.5-0.4-1.4-1.3-2.8-2.9c-3-1-3,0-3,0s5,9-6,0c-2,1-2,2-2,2s3,12-3,0c-3,1-4,2-4,2
				s0,14.1-5,0.1c-2-0.1-3,0.9-3,0.9s-2,13-6-1c-2-1-3,0-3,0s-5,12-5-2c-2,0-8,12-6-1c-1-1-11.5,10.6-5.7-2.2
				c-0.3,0.2-0.6,0.8-0.6,0.8S808,694,823,683c0,3-4,15,6,2c2,9-1,12,7,2c5,2,4,15,9,0c3,0,6,17,8-1c7-2,7,17,8-2c7,0,10,12,8-2
				c1.8,0.9,8.1,8.6,5.5,2.6"/>
		</g>
		<g>
			<path class="st10" d="M664,668c-1,4-3,16-3,16l20-1l-4-15H664z"/>
			<path class="st13" d="M701,662c-14-18-15-20-15-20s7,4,13,0c-13-13-12-17-12-17s3,2,5,0c-4-6-21-19-21-29s-2,73-2,73
				S668,680,701,662z"/>
			<path class="st13" d="M641,662c14-18,15-20,15-20s-7,4-13,0c13-13,12-17,12-17s-3,2-5,0c4-6,21-19,21-29s2,73,2,73
				S674,680,641,662z"/>
			<path class="st12" d="M656.9,639c0,0-2.8,6-1.9,8c0.9,2,6.5-3,8.4-7c1.9,6,2.8,15,7.5,1c3.7,5,3.7,15,8.4,0
				c0,0,10.4,17.6,7.1,0.3c-0.5-0.3-0.5-0.3-0.5-0.3s1.9,11-5.6-1c-0.9-1-0.9-1-1.9,0c-0.9,1-1.9,13-6.5,0c-0.9-1-2-0.4-2-0.4
				s-2.6,14.4-5.4-0.6c-0.9-1-12.1,16-6.5-1C656.9,638,656.9,639,656.9,639z"/>
			<path class="st12" d="M659.3,622.5c0,0-2.1,4.4-1.2,5.8c0.9,1.4,5.4-2.5,6.8-5.4c1.8,4.2,3,10.6,6.3,0.4
				c3.4,3.4,3.8,10.6,7.1-0.4c0,0,9.5,12.1,6-0.1c-0.5-0.2-0.5-0.2-0.5-0.2s2,7.8-4.8-0.4c-0.8-0.7-0.8-0.7-1.6,0.1
				c-0.7,0.8-1,9.4-5.5,0.3c-0.8-0.7-1.7-0.2-1.7-0.2s-1.6,10.5-4.6-0.2c-0.8-0.7-9.6,12.1-5.5-0.4
				C659.2,621.8,659.3,622.5,659.3,622.5z"/>
			<path class="st12" d="M699.8,660.9c-0.5-0.4-1.4-1.3-2.8-2.9c-3-1-3,0-3,0s5,9-6,0c-2,1-2,2-2,2s3,12-3,0c-3,1-4,2-4,2
				s0,14.1-5,0.1c-2-0.1-3,0.9-3,0.9s-2,13-6-1c-2-1-3,0-3,0s-5,12-5-2c-2,0-8,12-6-1c-1-1-11.5,10.6-5.7-2.2
				c-0.3,0.2-0.6,0.8-0.6,0.8S635,671,650,660c0,3-4,15,6,2c2,9-1,12,7,2c5,2,4,15,9,0c3,0,6,17,8-1c7-2,7,17,8-2c7,0,10,12,8-2
				c1.8,0.9,8.1,8.6,5.5,2.6"/>
		</g>
		<g>
			<path class="st10" d="M737,678c-1,4-3,16-3,16l20-1l-4-15H737z"/>
			<path class="st13" d="M774,672c-14-18-15-20-15-20s7,4,13,0c-13-13-12-17-12-17s3,2,5,0c-4-6-21-19-21-29s-2,73-2,73
				S741,690,774,672z"/>
			<path class="st13" d="M714,672c14-18,15-20,15-20s-7,4-13,0c13-13,12-17,12-17s-3,2-5,0c4-6,21-19,21-29s2,73,2,73
				S747,690,714,672z"/>
			<path class="st12" d="M729.9,649c0,0-2.8,6-1.9,8c0.9,2,6.5-3,8.4-7c1.9,6,2.8,15,7.5,1c3.7,5,3.7,15,8.4,0
				c0,0,10.4,17.6,7.1,0.3c-0.5-0.3-0.5-0.3-0.5-0.3s1.9,11-5.6-1c-0.9-1-0.9-1-1.9,0c-0.9,1-1.9,13-6.5,0c-0.9-1-2-0.4-2-0.4
				s-2.6,14.4-5.4-0.6c-0.9-1-12.1,16-6.5-1C729.9,648,729.9,649,729.9,649z"/>
			<path class="st12" d="M732.3,632.5c0,0-2.1,4.4-1.2,5.8c0.9,1.4,5.4-2.5,6.8-5.4c1.8,4.2,3,10.6,6.3,0.4
				c3.4,3.4,3.8,10.6,7.1-0.4c0,0,9.5,12.1,6-0.1c-0.5-0.2-0.5-0.2-0.5-0.2s2,7.8-4.8-0.4c-0.8-0.7-0.8-0.7-1.6,0.1
				c-0.7,0.8-1,9.4-5.5,0.3c-0.8-0.7-1.7-0.2-1.7-0.2s-1.6,10.5-4.6-0.2c-0.8-0.7-9.6,12.1-5.5-0.4
				C732.2,631.8,732.3,632.5,732.3,632.5z"/>
			<path class="st12" d="M772.8,670.9c-0.5-0.4-1.4-1.3-2.8-2.9c-3-1-3,0-3,0s5,9-6,0c-2,1-2,2-2,2s3,12-3,0c-3,1-4,2-4,2
				s0,14.1-5,0.1c-2-0.1-3,0.9-3,0.9s-2,13-6-1c-2-1-3,0-3,0s-5,12-5-2c-2,0-8,12-6-1c-1-1-11.5,10.6-5.7-2.2
				c-0.3,0.2-0.6,0.8-0.6,0.8S708,681,723,670c0,3-4,15,6,2c2,9-1,12,7,2c5,2,4,15,9,0c3,0,6,17,8-1c7-2,7,17,8-2c7,0,10,12,8-2
				c1.8,0.9,8.1,8.6,5.5,2.6"/>
		</g>
		<g>
			<path class="st10" d="M537,608c-1,4-3,16-3,16l20-1l-4-15H537z"/>
			<path class="st11" d="M574,602c-14-18-15-20-15-20s7,4,13,0c-13-13-12-17-12-17s3,2,5,0c-4-6-21-19-21-29s-2,73-2,73
				S541,620,574,602z"/>
			<path class="st11" d="M514,602c14-18,15-20,15-20s-7,4-13,0c13-13,12-17,12-17s-3,2-5,0c4-6,21-19,21-29s2,73,2,73
				S547,620,514,602z"/>
			<path class="st12" d="M529.9,579c0,0-2.8,6-1.9,8c0.9,2,6.5-3,8.4-7c1.9,6,2.8,15,7.5,1c3.7,5,3.7,15,8.4,0
				c0,0,10.4,17.6,7.1,0.3c-0.5-0.3-0.5-0.3-0.5-0.3s1.9,11-5.6-1c-0.9-1-0.9-1-1.9,0c-0.9,1-1.9,13-6.5,0c-0.9-1-2-0.4-2-0.4
				s-2.6,14.4-5.4-0.6c-0.9-1-12.1,16-6.5-1C529.9,578,529.9,579,529.9,579z"/>
			<path class="st12" d="M532.3,562.5c0,0-2.1,4.4-1.2,5.8c0.9,1.4,5.4-2.5,6.8-5.4c1.8,4.2,3,10.6,6.3,0.4
				c3.4,3.4,3.8,10.6,7.1-0.4c0,0,9.5,12.1,6-0.1c-0.5-0.2-0.5-0.2-0.5-0.2s2,7.8-4.8-0.4c-0.8-0.7-0.8-0.7-1.6,0.1
				c-0.7,0.8-1,9.4-5.5,0.3c-0.8-0.7-1.7-0.2-1.7-0.2s-1.6,10.5-4.6-0.2c-0.8-0.7-9.6,12.1-5.5-0.4
				C532.2,561.8,532.3,562.5,532.3,562.5z"/>
			<path class="st12" d="M572.8,600.9c-0.5-0.4-1.4-1.3-2.8-2.9c-3-1-3,0-3,0s5,9-6,0c-2,1-2,2-2,2s3,12-3,0c-3,1-4,2-4,2
				s0,14.1-5,0.1c-2-0.1-3,0.9-3,0.9s-2,13-6-1c-2-1-3,0-3,0s-5,12-5-2c-2,0-8,12-6-1c-1-1-11.5,10.6-5.7-2.2
				c-0.3,0.2-0.6,0.8-0.6,0.8S508,611,523,600c0,3-4,15,6,2c2,9-1,12,7,2c5,2,4,15,9,0c3,0,6,17,8-1c7-2,7,17,8-2c7,0,10,12,8-2
				c1.8,0.9,8.1,8.6,5.5,2.6"/>
		</g>
		<g>
			<path class="st10" d="M574,628c-1,4-3,16-3,16l20-1l-4-15H574z"/>
			<path class="st13" d="M611,622c-14-18-15-20-15-20s7,4,13,0c-13-13-12-17-12-17s3,2,5,0c-4-6-21-19-21-29s-2,73-2,73
				S578,640,611,622z"/>
			<path class="st13" d="M551,622c14-18,15-20,15-20s-7,4-13,0c13-13,12-17,12-17s-3,2-5,0c4-6,21-19,21-29s2,73,2,73
				S584,640,551,622z"/>
			<path class="st12" d="M566.9,599c0,0-2.8,6-1.9,8c0.9,2,6.5-3,8.4-7c1.9,6,2.8,15,7.5,1c3.7,5,3.7,15,8.4,0
				c0,0,10.4,17.6,7.1,0.3c-0.5-0.3-0.5-0.3-0.5-0.3s1.9,11-5.6-1c-0.9-1-0.9-1-1.9,0c-0.9,1-1.9,13-6.5,0c-0.9-1-2-0.4-2-0.4
				s-2.6,14.4-5.4-0.6c-0.9-1-12.1,16-6.5-1C566.9,598,566.9,599,566.9,599z"/>
			<path class="st12" d="M569.3,582.5c0,0-2.1,4.4-1.2,5.8c0.9,1.4,5.4-2.5,6.8-5.4c1.8,4.2,3,10.6,6.3,0.4
				c3.4,3.4,3.8,10.6,7.1-0.4c0,0,9.5,12.1,6-0.1c-0.5-0.2-0.5-0.2-0.5-0.2s2,7.8-4.8-0.4c-0.8-0.7-0.8-0.7-1.6,0.1
				c-0.7,0.8-1,9.4-5.5,0.3c-0.8-0.7-1.7-0.2-1.7-0.2s-1.6,10.5-4.6-0.2c-0.8-0.7-9.6,12.1-5.5-0.4
				C569.2,581.8,569.3,582.5,569.3,582.5z"/>
			<path class="st12" d="M609.8,620.9c-0.5-0.4-1.4-1.3-2.8-2.9c-3-1-3,0-3,0s5,9-6,0c-2,1-2,2-2,2s3,12-3,0c-3,1-4,2-4,2
				s0,14.1-5,0.1c-2-0.1-3,0.9-3,0.9s-2,13-6-1c-2-1-3,0-3,0s-5,12-5-2c-2,0-8,12-6-1c-1-1-11.5,10.6-5.7-2.2
				c-0.3,0.2-0.6,0.8-0.6,0.8S545,631,560,620c0,3-4,15,6,2c2,9-1,12,7,2c5,2,4,15,9,0c3,0,6,17,8-1c7-2,7,17,8-2c7,0,10,12,8-2
				c1.8,0.9,8.1,8.6,5.5,2.6"/>
		</g>
		<g>
			<path class="st10" d="M495,619c-1,4-3,16-3,16l20-1l-4-15H495z"/>
			<path class="st11" d="M532,613c-14-18-15-20-15-20s7,4,13,0c-13-13-12-17-12-17s3,2,5,0c-4-6-21-19-21-29s-2,73-2,73
				S499,631,532,613z"/>
			<path class="st11" d="M472,613c14-18,15-20,15-20s-7,4-13,0c13-13,12-17,12-17s-3,2-5,0c4-6,21-19,21-29s2,73,2,73
				S505,631,472,613z"/>
			<path class="st12" d="M487.9,590c0,0-2.8,6-1.9,8s6.5-3,8.4-7c1.9,6,2.8,15,7.5,1c3.7,5,3.7,15,8.4,0c0,0,10.4,17.6,7.1,0.3
				c-0.5-0.3-0.5-0.3-0.5-0.3s1.9,11-5.6-1c-0.9-1-0.9-1-1.9,0s-1.9,13-6.5,0c-0.9-1-2-0.4-2-0.4s-2.6,14.4-5.4-0.6
				c-0.9-1-12.1,16-6.5-1C487.9,589,487.9,590,487.9,590z"/>
			<path class="st12" d="M490.3,573.5c0,0-2.1,4.4-1.2,5.8s5.4-2.5,6.8-5.4c1.8,4.2,3,10.6,6.3,0.4c3.4,3.4,3.8,10.6,7.1-0.4
				c0,0,9.5,12.1,6-0.1c-0.5-0.2-0.5-0.2-0.5-0.2s2,7.8-4.8-0.4c-0.8-0.7-0.8-0.7-1.6,0.1c-0.7,0.8-1,9.4-5.5,0.3
				c-0.8-0.7-1.7-0.2-1.7-0.2s-1.6,10.5-4.6-0.2c-0.8-0.7-9.6,12.1-5.5-0.4C490.2,572.8,490.3,573.5,490.3,573.5z"/>
			<path class="st12" d="M530.8,611.9c-0.5-0.4-1.4-1.3-2.8-2.9c-3-1-3,0-3,0s5,9-6,0c-2,1-2,2-2,2s3,12-3,0c-3,1-4,2-4,2
				s0,14.1-5,0.1c-2-0.1-3,0.9-3,0.9s-2,13-6-1c-2-1-3,0-3,0s-5,12-5-2c-2,0-8,12-6-1c-1-1-11.5,10.6-5.7-2.2
				c-0.3,0.2-0.6,0.8-0.6,0.8S466,622,481,611c0,3-4,15,6,2c2,9-1,12,7,2c5,2,4,15,9,0c3,0,6,17,8-1c7-2,7,17,8-2c7,0,10,12,8-2
				c1.8,0.9,8.1,8.6,5.5,2.6"/>
		</g>
		<g>
			<path class="st10" d="M624,660c-1,4-3,16-3,16l20-1l-4-15H624z"/>
			<path class="st13" d="M661,654c-14-18-15-20-15-20s7,4,13,0c-13-13-12-17-12-17s3,2,5,0c-4-6-21-19-21-29s-2,73-2,73
				S628,672,661,654z"/>
			<path class="st13" d="M601,654c14-18,15-20,15-20s-7,4-13,0c13-13,12-17,12-17s-3,2-5,0c4-6,21-19,21-29s2,73,2,73
				S634,672,601,654z"/>
			<path class="st12" d="M616.9,631c0,0-2.8,6-1.9,8c0.9,2,6.5-3,8.4-7c1.9,6,2.8,15,7.5,1c3.7,5,3.7,15,8.4,0
				c0,0,10.4,17.6,7.1,0.3c-0.5-0.3-0.5-0.3-0.5-0.3s1.9,11-5.6-1c-0.9-1-0.9-1-1.9,0c-0.9,1-1.9,13-6.5,0c-0.9-1-2-0.4-2-0.4
				s-2.6,14.4-5.4-0.6c-0.9-1-12.1,16-6.5-1C616.9,630,616.9,631,616.9,631z"/>
			<path class="st12" d="M619.3,614.5c0,0-2.1,4.4-1.2,5.8c0.9,1.4,5.4-2.5,6.8-5.4c1.8,4.2,3,10.6,6.3,0.4
				c3.4,3.4,3.8,10.6,7.1-0.4c0,0,9.5,12.1,6-0.1c-0.5-0.2-0.5-0.2-0.5-0.2s2,7.8-4.8-0.4c-0.8-0.7-0.8-0.7-1.6,0.1
				c-0.7,0.8-1,9.4-5.5,0.3c-0.8-0.7-1.7-0.2-1.7-0.2s-1.6,10.5-4.6-0.2c-0.8-0.7-9.6,12.1-5.5-0.4
				C619.2,613.8,619.3,614.5,619.3,614.5z"/>
			<path class="st12" d="M659.8,652.9c-0.5-0.4-1.4-1.3-2.8-2.9c-3-1-3,0-3,0s5,9-6,0c-2,1-2,2-2,2s3,12-3,0c-3,1-4,2-4,2
				s0,14.1-5,0.1c-2-0.1-3,0.9-3,0.9s-2,13-6-1c-2-1-3,0-3,0s-5,12-5-2c-2,0-8,12-6-1c-1-1-11.5,10.6-5.7-2.2
				c-0.3,0.2-0.6,0.8-0.6,0.8S595,663,610,652c0,3-4,15,6,2c2,9-1,12,7,2c5,2,4,15,9,0c3,0,6,17,8-1c7-2,7,17,8-2c7,0,10,12,8-2
				c1.8,0.9,8.1,8.6,5.5,2.6"/>
		</g>
		<g>
			<path class="st10" d="M451,637c-1,4-3,16-3,16l20-1l-4-15H451z"/>
			<path class="st13" d="M488,631c-14-18-15-20-15-20s7,4,13,0c-13-13-12-17-12-17s3,2,5,0c-4-6-21-19-21-29s-2,73-2,73
				S455,649,488,631z"/>
			<path class="st13" d="M428,631c14-18,15-20,15-20s-7,4-13,0c13-13,12-17,12-17s-3,2-5,0c4-6,21-19,21-29s2,73,2,73
				S461,649,428,631z"/>
			<path class="st12" d="M443.9,608c0,0-2.8,6-1.9,8s6.5-3,8.4-7c1.9,6,2.8,15,7.5,1c3.7,5,3.7,15,8.4,0c0,0,10.4,17.6,7.1,0.3
				c-0.5-0.3-0.5-0.3-0.5-0.3s1.9,11-5.6-1c-0.9-1-0.9-1-1.9,0s-1.9,13-6.5,0c-0.9-1-2-0.4-2-0.4s-2.6,14.4-5.4-0.6
				c-0.9-1-12.1,16-6.5-1C443.9,607,443.9,608,443.9,608z"/>
			<path class="st12" d="M446.3,591.5c0,0-2.1,4.4-1.2,5.8s5.4-2.5,6.8-5.4c1.8,4.2,3,10.6,6.3,0.4c3.4,3.4,3.8,10.6,7.1-0.4
				c0,0,9.5,12.1,6-0.1c-0.5-0.2-0.5-0.2-0.5-0.2s2,7.8-4.8-0.4c-0.8-0.7-0.8-0.7-1.6,0.1c-0.7,0.8-1,9.4-5.5,0.3
				c-0.8-0.7-1.7-0.2-1.7-0.2s-1.6,10.5-4.6-0.2c-0.8-0.7-9.6,12.1-5.5-0.4C446.2,590.8,446.3,591.5,446.3,591.5z"/>
			<path class="st12" d="M486.8,629.9c-0.5-0.4-1.4-1.3-2.8-2.9c-3-1-3,0-3,0s5,9-6,0c-2,1-2,2-2,2s3,12-3,0c-3,1-4,2-4,2
				s0,14.1-5,0.1c-2-0.1-3,0.9-3,0.9s-2,13-6-1c-2-1-3,0-3,0s-5,12-5-2c-2,0-8,12-6-1c-1-1-11.5,10.6-5.7-2.2
				c-0.3,0.2-0.6,0.8-0.6,0.8S422,640,437,629c0,3-4,15,6,2c2,9-1,12,7,2c5,2,4,15,9,0c3,0,6,17,8-1c7-2,7,17,8-2c7,0,10,12,8-2
				c1.8,0.9,8.1,8.6,5.5,2.6"/>
		</g>
		<g>
			<path class="st10" d="M524,647c-1,4-3,16-3,16l20-1l-4-15H524z"/>
			<path class="st13" d="M561,641c-14-18-15-20-15-20s7,4,13,0c-13-13-12-17-12-17s3,2,5,0c-4-6-21-19-21-29s-2,73-2,73
				S528,659,561,641z"/>
			<path class="st13" d="M501,641c14-18,15-20,15-20s-7,4-13,0c13-13,12-17,12-17s-3,2-5,0c4-6,21-19,21-29s2,73,2,73
				S534,659,501,641z"/>
			<path class="st12" d="M516.9,618c0,0-2.8,6-1.9,8c0.9,2,6.5-3,8.4-7c1.9,6,2.8,15,7.5,1c3.7,5,3.7,15,8.4,0
				c0,0,10.4,17.6,7.1,0.3c-0.5-0.3-0.5-0.3-0.5-0.3s1.9,11-5.6-1c-0.9-1-0.9-1-1.9,0c-0.9,1-1.9,13-6.5,0c-0.9-1-2-0.4-2-0.4
				s-2.6,14.4-5.4-0.6c-0.9-1-12.1,16-6.5-1C516.9,617,516.9,618,516.9,618z"/>
			<path class="st12" d="M519.3,601.5c0,0-2.1,4.4-1.2,5.8c0.9,1.4,5.4-2.5,6.8-5.4c1.8,4.2,3,10.6,6.3,0.4
				c3.4,3.4,3.8,10.6,7.1-0.4c0,0,9.5,12.1,6-0.1c-0.5-0.2-0.5-0.2-0.5-0.2s2,7.8-4.8-0.4c-0.8-0.7-0.8-0.7-1.6,0.1
				c-0.7,0.8-1,9.4-5.5,0.3c-0.8-0.7-1.7-0.2-1.7-0.2s-1.6,10.5-4.6-0.2c-0.8-0.7-9.6,12.1-5.5-0.4
				C519.2,600.8,519.3,601.5,519.3,601.5z"/>
			<path class="st12" d="M559.8,639.9c-0.5-0.4-1.4-1.3-2.8-2.9c-3-1-3,0-3,0s5,9-6,0c-2,1-2,2-2,2s3,12-3,0c-3,1-4,2-4,2
				s0,14.1-5,0.1c-2-0.1-3,0.9-3,0.9s-2,13-6-1c-2-1-3,0-3,0s-5,12-5-2c-2,0-8,12-6-1c-1-1-11.5,10.6-5.7-2.2
				c-0.3,0.2-0.6,0.8-0.6,0.8S495,650,510,639c0,3-4,15,6,2c2,9-1,12,7,2c5,2,4,15,9,0c3,0,6,17,8-1c7-2,7,17,8-2c7,0,10,12,8-2
				c1.8,0.9,8.1,8.6,5.5,2.6"/>
		</g>
		<g>
			<path class="st10" d="M1054.7,536.2c-0.3,1.2-0.9,4.7-0.9,4.7l5.8-0.3l-1.2-4.4H1054.7z"/>
			<path class="st11" d="M1065.5,534.5c-4.1-5.2-4.4-5.8-4.4-5.8s2,1.2,3.8,0c-3.8-3.8-3.5-4.9-3.5-4.9s0.9,0.6,1.5,0
				c-1.2-1.7-6.1-5.5-6.1-8.4s-0.6,21.3-0.6,21.3S1055.9,539.7,1065.5,534.5z"/>
			<path class="st11" d="M1048,534.5c4.1-5.2,4.4-5.8,4.4-5.8s-2,1.2-3.8,0c3.8-3.8,3.5-4.9,3.5-4.9s-0.9,0.6-1.5,0
				c1.2-1.7,6.1-5.5,6.1-8.4s0.6,21.3,0.6,21.3S1057.6,539.7,1048,534.5z"/>
			<path class="st12" d="M1052.6,527.8c0,0-0.8,1.7-0.5,2.3s1.9-0.9,2.4-2c0.5,1.7,0.8,4.4,2.2,0.3c1.1,1.5,1.1,4.4,2.4,0
				c0,0,3,5.1,2.1,0.1c-0.2-0.1-0.2-0.1-0.2-0.1s0.5,3.2-1.6-0.3c-0.3-0.3-0.3-0.3-0.5,0c-0.3,0.3-0.5,3.8-1.9,0
				c-0.3-0.3-0.6-0.1-0.6-0.1s-0.8,4.2-1.6-0.2c-0.3-0.3-3.5,4.7-1.9-0.3C1052.6,527.5,1052.6,527.8,1052.6,527.8z"/>
			<path class="st12" d="M1053.4,523c0,0-0.6,1.3-0.4,1.7c0.3,0.4,1.6-0.7,2-1.6c0.5,1.2,0.9,3.1,1.8,0.1c1,1,1.1,3.1,2.1-0.1
				c0,0,2.8,3.5,1.7,0c-0.1-0.1-0.1-0.1-0.1-0.1s0.6,2.3-1.4-0.1c-0.2-0.2-0.2-0.2-0.5,0c-0.2,0.2-0.3,2.7-1.6,0.1
				c-0.2-0.2-0.5,0-0.5,0s-0.5,3-1.3-0.1c-0.2-0.2-2.8,3.5-1.6-0.1C1053.3,522.8,1053.4,523,1053.4,523z"/>
			<path class="st12" d="M1065.1,534.1c-0.1-0.1-0.4-0.4-0.8-0.8c-0.9-0.3-0.9,0-0.9,0s1.5,2.6-1.7,0c-0.6,0.3-0.6,0.6-0.6,0.6
				s0.9,3.5-0.9,0c-0.9,0.3-1.2,0.6-1.2,0.6s0,4.1-1.5,0c-0.6,0-0.9,0.3-0.9,0.3s-0.6,3.8-1.7-0.3c-0.6-0.3-0.9,0-0.9,0
				s-1.5,3.5-1.5-0.6c-0.6,0-2.3,3.5-1.7-0.3c-0.3-0.3-3.3,3.1-1.7-0.6c-0.1,0.1-0.2,0.2-0.2,0.2s-2.8,3.9,1.6,0.7
				c0,0.9-1.2,4.4,1.7,0.6c0.6,2.6-0.3,3.5,2,0.6c1.5,0.6,1.2,4.4,2.6,0c0.9,0,1.7,4.9,2.3-0.3c2-0.6,2,4.9,2.3-0.6
				c2,0,2.9,3.5,2.3-0.6c0.5,0.3,2.4,2.5,1.6,0.7"/>
		</g>
		<g>
			<path class="st10" d="M1065.5,542c-0.3,1.2-0.9,4.7-0.9,4.7l5.8-0.3l-1.2-4.4H1065.5z"/>
			<path class="st13" d="M1076.3,540.3c-4.1-5.2-4.4-5.8-4.4-5.8s2,1.2,3.8,0c-3.8-3.8-3.5-4.9-3.5-4.9s0.9,0.6,1.5,0
				c-1.2-1.7-6.1-5.5-6.1-8.4s-0.6,21.3-0.6,21.3S1066.7,545.5,1076.3,540.3z"/>
			<path class="st13" d="M1058.8,540.3c4.1-5.2,4.4-5.8,4.4-5.8s-2,1.2-3.8,0c3.8-3.8,3.5-4.9,3.5-4.9s-0.9,0.6-1.5,0
				c1.2-1.7,6.1-5.5,6.1-8.4s0.6,21.3,0.6,21.3S1068.4,545.5,1058.8,540.3z"/>
			<path class="st12" d="M1063.4,533.6c0,0-0.8,1.7-0.5,2.3s1.9-0.9,2.4-2c0.5,1.7,0.8,4.4,2.2,0.3c1.1,1.5,1.1,4.4,2.4,0
				c0,0,3,5.1,2.1,0.1c-0.2-0.1-0.2-0.1-0.2-0.1s0.5,3.2-1.6-0.3c-0.3-0.3-0.3-0.3-0.5,0s-0.5,3.8-1.9,0c-0.3-0.3-0.6-0.1-0.6-0.1
				s-0.8,4.2-1.6-0.2c-0.3-0.3-3.5,4.7-1.9-0.3C1063.4,533.3,1063.4,533.6,1063.4,533.6z"/>
			<path class="st12" d="M1064.1,528.8c0,0-0.6,1.3-0.4,1.7c0.3,0.4,1.6-0.7,2-1.6c0.5,1.2,0.9,3.1,1.8,0.1c1,1,1.1,3.1,2.1-0.1
				c0,0,2.8,3.5,1.7,0c-0.1-0.1-0.1-0.1-0.1-0.1s0.6,2.3-1.4-0.1c-0.2-0.2-0.2-0.2-0.5,0c-0.2,0.2-0.3,2.7-1.6,0.1
				c-0.2-0.2-0.5,0-0.5,0s-0.5,3-1.3-0.1c-0.2-0.2-2.8,3.5-1.6-0.1C1064.1,528.6,1064.1,528.8,1064.1,528.8z"/>
			<path class="st12" d="M1075.9,540c-0.1-0.1-0.4-0.4-0.8-0.8c-0.9-0.3-0.9,0-0.9,0s1.5,2.6-1.7,0c-0.6,0.3-0.6,0.6-0.6,0.6
				s0.9,3.5-0.9,0c-0.9,0.3-1.2,0.6-1.2,0.6s0,4.1-1.5,0c-0.6,0-0.9,0.3-0.9,0.3s-0.6,3.8-1.7-0.3c-0.6-0.3-0.9,0-0.9,0
				s-1.5,3.5-1.5-0.6c-0.6,0-2.3,3.5-1.7-0.3c-0.3-0.3-3.3,3.1-1.7-0.6c-0.1,0.1-0.2,0.2-0.2,0.2s-2.8,3.9,1.6,0.7
				c0,0.9-1.2,4.4,1.7,0.6c0.6,2.6-0.3,3.5,2,0.6c1.5,0.6,1.2,4.4,2.6,0c0.9,0,1.7,4.9,2.3-0.3c2-0.6,2,4.9,2.3-0.6
				c2,0,2.9,3.5,2.3-0.6c0.5,0.3,2.4,2.5,1.6,0.7"/>
		</g>
		<g>
			<path class="st10" d="M1042.5,539.4c-0.3,1.2-0.9,4.7-0.9,4.7l5.8-0.3l-1.2-4.4H1042.5z"/>
			<path class="st11" d="M1053.3,537.7c-4.1-5.2-4.4-5.8-4.4-5.8s2,1.2,3.8,0c-3.8-3.8-3.5-4.9-3.5-4.9s0.9,0.6,1.5,0
				c-1.2-1.7-6.1-5.5-6.1-8.4s-0.6,21.3-0.6,21.3S1043.7,542.9,1053.3,537.7z"/>
			<path class="st11" d="M1035.8,537.7c4.1-5.2,4.4-5.8,4.4-5.8s-2,1.2-3.8,0c3.8-3.8,3.5-4.9,3.5-4.9s-0.9,0.6-1.5,0
				c1.2-1.7,6.1-5.5,6.1-8.4s0.6,21.3,0.6,21.3S1045.4,542.9,1035.8,537.7z"/>
			<path class="st12" d="M1040.4,531c0,0-0.8,1.7-0.5,2.3s1.9-0.9,2.4-2c0.5,1.7,0.8,4.4,2.2,0.3c1.1,1.5,1.1,4.4,2.4,0
				c0,0,3,5.1,2.1,0.1c-0.2-0.1-0.2-0.1-0.2-0.1s0.5,3.2-1.6-0.3c-0.3-0.3-0.3-0.3-0.5,0c-0.3,0.3-0.5,3.8-1.9,0
				c-0.3-0.3-0.6-0.1-0.6-0.1s-0.8,4.2-1.6-0.2c-0.3-0.3-3.5,4.7-1.9-0.3C1040.4,530.7,1040.4,531,1040.4,531z"/>
			<path class="st12" d="M1041.1,526.2c0,0-0.6,1.3-0.4,1.7c0.3,0.4,1.6-0.7,2-1.6c0.5,1.2,0.9,3.1,1.8,0.1c1,1,1.1,3.1,2.1-0.1
				c0,0,2.8,3.5,1.7,0c-0.1-0.1-0.1-0.1-0.1-0.1s0.6,2.3-1.4-0.1c-0.2-0.2-0.2-0.2-0.5,0c-0.2,0.2-0.3,2.7-1.6,0.1
				c-0.2-0.2-0.5,0-0.5,0s-0.5,3-1.3-0.1c-0.2-0.2-2.8,3.5-1.6-0.1C1041.1,526,1041.1,526.2,1041.1,526.2z"/>
			<path class="st12" d="M1052.9,537.3c-0.1-0.1-0.4-0.4-0.8-0.8c-0.9-0.3-0.9,0-0.9,0s1.5,2.6-1.7,0c-0.6,0.3-0.6,0.6-0.6,0.6
				s0.9,3.5-0.9,0c-0.9,0.3-1.2,0.6-1.2,0.6s0,4.1-1.5,0c-0.6,0-0.9,0.3-0.9,0.3s-0.6,3.8-1.7-0.3c-0.6-0.3-0.9,0-0.9,0
				s-1.5,3.5-1.5-0.6c-0.6,0-2.3,3.5-1.7-0.3c-0.3-0.3-3.3,3.1-1.7-0.6c-0.1,0.1-0.2,0.2-0.2,0.2s-2.8,3.9,1.6,0.7
				c0,0.9-1.2,4.4,1.7,0.6c0.6,2.6-0.3,3.5,2,0.6c1.5,0.6,1.2,4.4,2.6,0c0.9,0,1.7,4.9,2.3-0.3c2-0.6,2,4.9,2.3-0.6
				c2,0,2.9,3.5,2.3-0.6c0.5,0.3,2.4,2.5,1.6,0.7"/>
		</g>
		<g>
			<path class="st10" d="M1080.1,551.3c-0.3,1.2-0.9,4.7-0.9,4.7l5.8-0.3l-1.2-4.4H1080.1z"/>
			<path class="st13" d="M1090.8,549.6c-4.1-5.2-4.4-5.8-4.4-5.8s2,1.2,3.8,0c-3.8-3.8-3.5-4.9-3.5-4.9s0.9,0.6,1.5,0
				c-1.2-1.7-6.1-5.5-6.1-8.4s-0.6,21.3-0.6,21.3S1081.2,554.8,1090.8,549.6z"/>
			<path class="st13" d="M1073.4,549.6c4.1-5.2,4.4-5.8,4.4-5.8s-2,1.2-3.8,0c3.8-3.8,3.5-4.9,3.5-4.9s-0.9,0.6-1.5,0
				c1.2-1.7,6.1-5.5,6.1-8.4s0.6,21.3,0.6,21.3S1083,554.8,1073.4,549.6z"/>
			<path class="st12" d="M1078,542.9c0,0-0.8,1.7-0.5,2.3s1.9-0.9,2.4-2c0.5,1.7,0.8,4.4,2.2,0.3c1.1,1.5,1.1,4.4,2.4,0
				c0,0,3,5.1,2.1,0.1c-0.2-0.1-0.2-0.1-0.2-0.1s0.5,3.2-1.6-0.3c-0.3-0.3-0.3-0.3-0.5,0s-0.5,3.8-1.9,0c-0.3-0.3-0.6-0.1-0.6-0.1
				s-0.8,4.2-1.6-0.2c-0.3-0.3-3.5,4.7-1.9-0.3C1078,542.6,1078,542.9,1078,542.9z"/>
			<path class="st12" d="M1078.7,538.1c0,0-0.6,1.3-0.4,1.7c0.3,0.4,1.6-0.7,2-1.6c0.5,1.2,0.9,3.1,1.8,0.1c1,1,1.1,3.1,2.1-0.1
				c0,0,2.8,3.5,1.7,0c-0.1-0.1-0.1-0.1-0.1-0.1s0.6,2.3-1.4-0.1c-0.2-0.2-0.2-0.2-0.5,0c-0.2,0.2-0.3,2.7-1.6,0.1
				c-0.2-0.2-0.5,0-0.5,0s-0.5,3-1.3-0.1c-0.2-0.2-2.8,3.5-1.6-0.1C1078.7,537.9,1078.7,538.1,1078.7,538.1z"/>
			<path class="st12" d="M1090.5,549.3c-0.1-0.1-0.4-0.4-0.8-0.8c-0.9-0.3-0.9,0-0.9,0s1.5,2.6-1.7,0c-0.6,0.3-0.6,0.6-0.6,0.6
				s0.9,3.5-0.9,0c-0.9,0.3-1.2,0.6-1.2,0.6s0,4.1-1.5,0c-0.6,0-0.9,0.3-0.9,0.3s-0.6,3.8-1.7-0.3c-0.6-0.3-0.9,0-0.9,0
				s-1.5,3.5-1.5-0.6c-0.6,0-2.3,3.5-1.7-0.3c-0.3-0.3-3.3,3.1-1.7-0.6c-0.1,0.1-0.2,0.2-0.2,0.2s-2.8,3.9,1.6,0.7
				c0,0.9-1.2,4.4,1.7,0.6c0.6,2.6-0.3,3.5,2,0.6c1.5,0.6,1.2,4.4,2.6,0c0.9,0,1.7,4.9,2.3-0.3c2-0.6,2,4.9,2.3-0.6
				c2,0,2.9,3.5,2.3-0.6c0.5,0.3,2.4,2.5,1.6,0.7"/>
		</g>
		<g>
			<path class="st10" d="M1050.9,547.6c-0.3,1.2-0.9,4.7-0.9,4.7l5.8-0.3l-1.2-4.4H1050.9z"/>
			<path class="st13" d="M1061.7,545.8c-4.1-5.2-4.4-5.8-4.4-5.8s2,1.2,3.8,0c-3.8-3.8-3.5-4.9-3.5-4.9s0.9,0.6,1.5,0
				c-1.2-1.7-6.1-5.5-6.1-8.4s-0.6,21.3-0.6,21.3S1052.1,551.1,1061.7,545.8z"/>
			<path class="st13" d="M1044.2,545.8c4.1-5.2,4.4-5.8,4.4-5.8s-2,1.2-3.8,0c3.8-3.8,3.5-4.9,3.5-4.9s-0.9,0.6-1.5,0
				c1.2-1.7,6.1-5.5,6.1-8.4s0.6,21.3,0.6,21.3S1053.9,551.1,1044.2,545.8z"/>
			<path class="st12" d="M1048.9,539.1c0,0-0.8,1.7-0.5,2.3s1.9-0.9,2.4-2c0.5,1.7,0.8,4.4,2.2,0.3c1.1,1.5,1.1,4.4,2.4,0
				c0,0,3,5.1,2.1,0.1c-0.2-0.1-0.2-0.1-0.2-0.1s0.5,3.2-1.6-0.3c-0.3-0.3-0.3-0.3-0.5,0s-0.5,3.8-1.9,0c-0.3-0.3-0.6-0.1-0.6-0.1
				s-0.8,4.2-1.6-0.2c-0.3-0.3-3.5,4.7-1.9-0.3C1048.9,538.8,1048.9,539.1,1048.9,539.1z"/>
			<path class="st12" d="M1049.6,534.3c0,0-0.6,1.3-0.4,1.7c0.3,0.4,1.6-0.7,2-1.6c0.5,1.2,0.9,3.1,1.8,0.1c1,1,1.1,3.1,2.1-0.1
				c0,0,2.8,3.5,1.7,0c-0.1-0.1-0.1-0.1-0.1-0.1s0.6,2.3-1.4-0.1c-0.2-0.2-0.2-0.2-0.5,0c-0.2,0.2-0.3,2.7-1.6,0.1
				c-0.2-0.2-0.5,0-0.5,0s-0.5,3-1.3-0.1c-0.2-0.2-2.8,3.5-1.6-0.1C1049.6,534.1,1049.6,534.3,1049.6,534.3z"/>
			<path class="st12" d="M1061.4,545.5c-0.1-0.1-0.4-0.4-0.8-0.8c-0.9-0.3-0.9,0-0.9,0s1.5,2.6-1.7,0c-0.6,0.3-0.6,0.6-0.6,0.6
				s0.9,3.5-0.9,0c-0.9,0.3-1.2,0.6-1.2,0.6s0,4.1-1.5,0c-0.6,0-0.9,0.3-0.9,0.3s-0.6,3.8-1.7-0.3c-0.6-0.3-0.9,0-0.9,0
				s-1.5,3.5-1.5-0.6c-0.6,0-2.3,3.5-1.7-0.3c-0.3-0.3-3.3,3.1-1.7-0.6c-0.1,0.1-0.2,0.2-0.2,0.2s-2.8,3.9,1.6,0.7
				c0,0.9-1.2,4.4,1.7,0.6c0.6,2.6-0.3,3.5,2,0.6c1.5,0.6,1.2,4.4,2.6,0c0.9,0,1.7,4.9,2.3-0.3c2-0.6,2,4.9,2.3-0.6
				c2,0,2.9,3.5,2.3-0.6c0.5,0.3,2.4,2.5,1.6,0.7"/>
		</g>
	</g>
	<g id="Hill">
		<path class="st14" d="M-27,374c0,0,621,236,720,313s132,95,113,97c-8.3,0.9-14.6,1.7-15.2,1.7c-19.9-1.7-813.1,160-935.9-40.3
			C-171.4,702.5-189.7,606.1-27,374z"/>
		<path class="st7" d="M-11,490c0,0,115,60,172,60s57-16,55-18s4-16,9-12s60,49,75,40s-8-39,8-39s49.6,23.4,55.8,8.7
			C290,499-11,380.1-11,380.1V490z"/>
	</g>
	<g id="River">
		
			<linearGradient id="SVGID_7_" gradientUnits="userSpaceOnUse" x1="805.9" y1="235.4118" x2="1396.0027" y2="235.4118" gradientTransform="matrix(1 0 0 -1 0 1080)">
			<stop  offset="0.308" style="stop-color:#29ABE2"/>
			<stop  offset="0.3895" style="stop-color:#23A3DC"/>
			<stop  offset="0.7386" style="stop-color:#0B83C7"/>
			<stop  offset="0.9324" style="stop-color:#0277BF"/>
		</linearGradient>
		<path class="st15" d="M805.9,1080c0,0,308.6-244.9,176.4-375c-60.4-59.3-22.8-99.5,36-125.7C1088.1,548.2,1188,537,1188,537
			s-86,42-81,75s290,92,289,211s-46,305-78,326S805.9,1080,805.9,1080z"/>
	</g>
	<g id="Grey_mountain">
		<path class="st16" d="M1162.8,550.9l44.7-49.4L1567,266c0,0,70.5-50.5,121,0s241-164,241-164l-6,246c0,0-438,190-683,250
			S1162.8,550.9,1162.8,550.9z"/>
		<path class="st16" d="M1163,551c0,0-167.5,74.4,73.2,126.2C1477,729,1738,700,1786,621s92,20,122,0s64-180,64-180l-48.2-127.3
			L1163,551z"/>
		
			<linearGradient id="SVGID_8_" gradientUnits="userSpaceOnUse" x1="1298.3" y1="712.3044" x2="1603.7" y2="712.3044" gradientTransform="matrix(1 0 0 -1 0 1080)">
			<stop  offset="4.594595e-02" style="stop-color:#534741;stop-opacity:0"/>
			<stop  offset="1" style="stop-color:#2C201A"/>
		</linearGradient>
		<path class="st17" d="M1603.7,307.2c0,0-111.7,154.8-198.7,158.8s-106.7-24-106.7-24L1562,269C1562,269,1572.3,301.3,1603.7,307.2
			z"/>
	</g>
	<g id="Snow">
		<path class="st7" d="M848,346c0,0,1,22,1,29s6-8,6-8s3-22,4-10s-2,53,4,37c4.1-10.9,5.3-31.7,12-40c3.1-3.8,9,2,13,1
			c3-4,11-10,13,6s6,0,6-1s30,2.5,30,2.5S876,282,848,346z"/>
		<path class="st7" d="M712.8,373.6c0,0-17.8,19.4-10.8,28.4s3,21,5,22s1-21,5-19s4,13,7,12s3-14,6-10s14,0,14-7s-2.9-21.7-2.9-21.7
			S722.5,383.3,712.8,373.6z"/>
		<path class="st7" d="M496.9,283.8c0,0-8.9,61.2,0.1,50.2s4-38,11-27s7-18,14-9s8,47,13,34s7-44,14-36s16.7-5.3,16.7-5.3
			S537.9,254.7,496.9,283.8z"/>
		<path class="st7" d="M300,79.4c0,0,0,24.6,16,23.6c6,0,7-1.5,7-1.5S304.9,91.7,300,79.4z"/>
		<path class="st7" d="M1562.2,269.5c0,0,9.8,34.5,45.8,37.5s82.4-38.9,82.4-38.9S1645.4,211.9,1562.2,269.5z"/>
		<path class="st18" d="M1673.2,281.7c0,0,19.3-2.2,24.3,16.8s12,49,16,34s1-41,11-41s33,18,37,8s-18-36-7-35s28,39,34,33
			s-5-55,6-49s30,12,33-1c10-15,8,9,38-44s38.6-74.7,38.6-74.7s-71.6,75-124.1,112.8c-40.5,23.8-63.5,40.8-89.5,26.8
			C1662.5,264.5,1673.2,281.7,1673.2,281.7z"/>
	</g>
	<linearGradient id="SVGID_9_" gradientUnits="userSpaceOnUse" x1="1746.1833" y1="588.5762" x2="1865.9308" y2="519.44">
		<stop  offset="0" style="stop-color:#534741;stop-opacity:0"/>
		<stop  offset="0" style="stop-color:#3E321A"/>
	</linearGradient>
	<path class="st19" d="M1773.6,636.1c0,0,32.4-276.9,66.4-153.2s31.7,128.1,31.7,128.1S1820.8,559.7,1773.6,636.1z"/>
</g>
</svg>
