<?xml version="1.0" encoding="utf-8"?>
<!-- Generator: Adobe Illustrator 21.1.0, SVG Export Plug-In . SVG Version: 6.00 Build 0)  -->
<svg version="1.1" id="Layer_1" xmlns="http://www.w3.org/2000/svg" xmlns:xlink="http://www.w3.org/1999/xlink" x="0px" y="0px"
	 viewBox="0 0 500 500" style="enable-background:new 0 0 500 500;" xml:space="preserve">
<style type="text/css">
	.st0{fill:#818ADB;}
	.st1{fill:#0C3D6B;}
	.st2{fill:none;stroke:#00CDDD;stroke-width:36;stroke-miterlimit:10;}
	.st3{fill:none;stroke:#DB3D4F;stroke-width:36;stroke-miterlimit:10;}
</style>
<g>
	<path class="st0" d="M250,488c-63.6,0-123.3-24.8-168.3-69.7C36.8,373.3,12,313.6,12,250S36.8,126.7,81.7,81.7S186.4,12,250,12
		s123.3,24.8,168.3,69.7c45,45,69.7,104.7,69.7,168.3s-24.8,123.3-69.7,168.3C373.3,463.2,313.6,488,250,488z"/>
	<path class="st1" d="M250,24c30.5,0,60.1,6,88,17.8c26.9,11.4,51.1,27.7,71.8,48.4c20.8,20.8,37.1,44.9,48.4,71.8
		c11.8,27.8,17.8,57.4,17.8,88s-6,60.1-17.8,88c-11.4,26.9-27.7,51.1-48.4,71.8c-20.8,20.8-44.9,37.1-71.8,48.4
		C310.1,470,280.5,476,250,476s-60.1-6-88-17.8c-26.9-11.4-51.1-27.7-71.8-48.4C69.4,389,53.1,364.9,41.8,338
		C30,310.1,24,280.5,24,250s6-60.1,17.8-88c11.4-26.9,27.7-51.1,48.4-71.8C111,69.4,135.1,53.1,162,41.8C189.9,30,219.5,24,250,24
		 M250,0C111.9,0,0,111.9,0,250s111.9,250,250,250s250-111.9,250-250S388.1,0,250,0L250,0z"/>
</g>
<path class="st2" d="M75,250c0,0,78.2,249,175,0s175,0,175,0"/>
<path class="st3" d="M422.7,243.1l2.3,6.9c0,0-78.2,249-175,0s-175,0-175,0l3.1,9"/>
</svg>
